<svg width="17" height="10" viewBox="0 0 17 10" fill="none" xmlns="http://www.w3.org/2000/svg">
<path d="M8.50317 6.05968L2.89146 0.48782C2.73732 0.334397 2.53122 0.249998 2.31146 0.249998C2.09159 0.249998 1.88561 0.334397 1.73122 0.48782L1.23976 0.976056C1.08512 1.12924 1 1.334 1 1.5522C1 1.77041 1.08512 1.97493 1.23976 2.12823L7.92098 8.76242C8.07585 8.91632 8.2828 9.0006 8.5028 9C8.72378 9.0006 8.93049 8.91644 9.08549 8.76242L15.7602 2.13441C15.9149 1.98111 16 1.77659 16 1.55826C16 1.34005 15.9149 1.13553 15.7602 0.982111L15.2688 0.493995C14.9489 0.176375 14.4282 0.176375 14.1084 0.493995L8.50317 6.05968Z" fill="#0B2239" stroke="#F2F4F5" stroke-width="0.5"/>
</svg>
