<svg width="50" height="50" viewBox="0 0 50 50" fill="none" xmlns="http://www.w3.org/2000/svg">
<path d="M25 36.8164C29.3687 36.8164 32.9102 33.2749 32.9102 28.9062C32.9102 24.5376 29.3687 20.9961 25 20.9961C20.6313 20.9961 17.0898 24.5376 17.0898 28.9062C17.0898 33.2749 20.6313 36.8164 25 36.8164Z" fill="white"/>
<path d="M36.5522 8.88672L36.0466 6.35908C35.7737 4.99443 34.5655 4.00391 33.1738 4.00391H16.8256C15.434 4.00391 14.2257 4.99443 13.9528 6.35908L13.4473 8.88672H36.5522Z" fill="white"/>
<path d="M45.6055 11.8164C42.1657 11.8164 6.0043 11.8164 4.39453 11.8164C1.97139 11.8164 0 13.7878 0 16.2109V41.6016C0 44.0247 1.97139 45.9961 4.39453 45.9961H45.6055C48.0286 45.9961 50 44.0247 50 41.6016V16.2109C50 13.7878 48.0286 11.8164 45.6055 11.8164ZM12.5 20.9961H7.8125C7.00352 20.9961 6.34766 20.3402 6.34766 19.5312C6.34766 18.7223 7.00352 18.0664 7.8125 18.0664H12.5C13.309 18.0664 13.9648 18.7223 13.9648 19.5312C13.9648 20.3402 13.309 20.9961 12.5 20.9961ZM25 39.7461C19.0229 39.7461 14.1602 34.8834 14.1602 28.9062C14.1602 22.9291 19.0229 18.0664 25 18.0664C30.9771 18.0664 35.8398 22.9291 35.8398 28.9062C35.8398 34.8834 30.9771 39.7461 25 39.7461Z" fill="white"/>
</svg>
