<svg width="15" height="15" viewBox="0 0 15 15" fill="none" xmlns="http://www.w3.org/2000/svg">
<path d="M12.8057 2.19444C9.87931 -0.731317 5.1202 -0.731317 2.19383 2.19444C-0.731278 5.1202 -0.731278 9.88053 2.19383 12.8063C3.65702 14.2689 5.57854 14.9998 7.50008 14.9998C9.42163 14.9998 11.3425 14.2688 12.8057 12.8063C15.7314 9.88056 15.7314 5.1202 12.8057 2.19444ZM10.5946 9.71109C10.8391 9.95557 10.8391 10.3508 10.5946 10.5952C10.4727 10.7172 10.3126 10.7785 10.1525 10.7785C9.99248 10.7785 9.83239 10.7172 9.71045 10.5952L7.50005 8.3842L5.29027 10.5946C5.16772 10.7165 5.00762 10.7778 4.84817 10.7778C4.68811 10.7778 4.52801 10.7165 4.40608 10.5946C4.1616 10.3501 4.1616 9.95431 4.40608 9.71044L6.61587 7.50004L4.40547 5.28964C4.16099 5.04516 4.16099 4.64935 4.40547 4.40549C4.64933 4.16101 5.04514 4.16101 5.28962 4.40549L7.50002 6.61589L9.71042 4.40549C9.9549 4.16101 10.3501 4.16101 10.5946 4.40549C10.8391 4.64935 10.8391 5.04516 10.5946 5.28964L8.38418 7.50004L10.5946 9.71109Z" fill="#C4C4C4"/>
</svg>
