<svg width="72" height="80" viewBox="0 0 72 80" fill="none" xmlns="http://www.w3.org/2000/svg">
<path d="M71.426 75.9036L67.8869 55.1844C67.5055 52.952 65.9219 51.1588 63.7536 50.5047L54.208 47.6245C54.0104 45.2911 53.0536 43.0897 51.4615 41.3472C50.1879 39.9534 48.586 38.9386 46.8202 38.3786C47.1224 38.0433 47.4025 37.7091 47.6596 37.3822C49.9296 34.4952 51.1449 31.3145 51.4543 29.1441H52.1907C54.106 29.1441 55.6643 27.5859 55.6643 25.6705V23.8898C55.6643 22.6116 54.9452 21.4533 53.8638 20.8522V16.5703C53.8638 15.9233 53.3393 15.3988 52.6922 15.3988C52.0452 15.3988 51.5208 15.9231 51.5208 16.5703V21.3772C51.0646 21.4564 50.5202 21.5933 49.9633 21.8278C49.9063 21.8486 49.8508 21.8727 49.7983 21.9016C49.6725 21.9589 49.5466 22.0194 49.4211 22.0875V12.6466C49.4211 10.0383 47.2993 7.91641 44.691 7.91641H41.4574C40.3421 7.91641 39.2525 8.305 38.3891 9.01094L38.0718 9.27031C37.489 9.74687 36.7533 10.0094 36.0004 10.0094C35.2474 10.0094 34.5116 9.74687 33.9288 9.27031L33.6116 9.01094C32.7482 8.30516 31.6586 7.91641 30.5433 7.91641H27.3094C24.7011 7.91641 22.5793 10.0383 22.5793 12.6466V22.0875C22.4538 22.0194 22.3279 21.9589 22.2021 21.9016C22.1496 21.8727 22.0943 21.8486 22.0372 21.8278C21.4804 21.5933 20.9358 21.4564 20.4797 21.3772V9.22266C20.4797 5.42922 23.566 2.34297 27.3594 2.34297H44.6408C48.4344 2.34297 51.5205 5.42922 51.5205 9.22266V11.0642C51.5205 11.7112 52.045 12.2358 52.6919 12.2358C53.3388 12.2358 53.8635 11.7114 53.8635 11.0642V9.22266C53.8635 4.13734 49.7261 0 44.6408 0H27.3594C22.274 0 18.1368 4.13734 18.1368 9.22266V20.8523C17.0554 21.4534 16.3363 22.6116 16.3363 23.89V25.6706C16.3363 27.5861 17.8946 29.1442 19.8099 29.1442H20.5463C20.8555 31.3147 22.071 34.4953 24.341 37.3823C24.5977 37.7089 24.8777 38.0428 25.1796 38.3778C21.1202 39.6672 18.1599 43.3169 17.7925 47.6245L8.24661 50.5047C6.07833 51.1588 4.49458 52.952 4.11333 55.1844L2.67614 63.5983C2.56723 64.2361 2.99598 64.8412 3.63364 64.9502C4.27114 65.0594 4.87661 64.6305 4.98567 63.9927L6.42286 55.5788C6.65348 54.2281 7.61161 53.1434 8.92333 52.7478L17.7522 50.0839V52.4013C15.7285 52.7738 14.0065 54.1639 13.2972 56.09C13.109 56.6013 12.9919 57.1366 12.9494 57.6809L12.0961 68.6333C12.0318 69.4583 12.3172 70.2798 12.879 70.8869C13.4407 71.4941 14.2374 71.8425 15.0647 71.8425H16.5254C17.1724 71.8425 17.6969 71.3181 17.6969 70.6709C17.6969 70.0238 17.1724 69.4995 16.5254 69.4995H15.0647C14.8883 69.4995 14.7186 69.4255 14.5988 69.2958C14.4791 69.1664 14.4183 68.9914 14.4321 68.8156L15.2854 57.8631C15.3111 57.5333 15.3819 57.2091 15.496 56.8995C15.9894 55.5597 17.3219 54.6523 18.8121 54.6419L19.005 54.6405C19.0141 54.6403 19.023 54.6403 19.0319 54.6403C20.4802 54.6403 21.7622 55.4616 22.303 56.7383C22.4547 57.0962 22.5469 57.4747 22.5772 57.8631L23.4308 68.8158C23.4444 68.9914 23.3836 69.1664 23.264 69.2959C23.1443 69.4253 22.9744 69.4995 22.798 69.4995H21.3374C20.6904 69.4995 20.1658 70.0239 20.1658 70.6709C20.1658 71.318 20.6904 71.8425 21.3374 71.8425H22.798C23.6254 71.8425 24.4222 71.4942 24.9838 70.8869C25.5457 70.2795 25.8311 69.4581 25.7668 68.6334L24.9132 57.6809C24.8632 57.04 24.7108 56.4152 24.4604 55.8241C23.6886 54.0027 22.0385 52.7363 20.095 52.3936V49.377L24.1222 48.1619C24.4886 48.9336 25.2147 50.6013 26.653 54.1961C28.1025 57.8233 29.9043 62.4725 31.6322 66.9922C31.6446 67.0302 31.6588 67.0672 31.6747 67.1034C32.8279 70.1208 33.9465 73.0761 34.9032 75.6255C35.0747 76.0827 35.5118 76.3855 36 76.3855C36.4883 76.3855 36.9254 76.0827 37.0969 75.6255C38.0535 73.0761 39.1721 70.1208 40.3254 67.1034C40.3415 67.0672 40.3555 67.03 40.3679 66.9922C42.0946 62.4752 43.8954 57.8289 45.3443 54.2028C46.7844 50.6033 47.5111 48.9342 47.8777 48.1619L51.9049 49.377V56.2966C49.1146 56.8386 47.001 59.2995 47.001 62.2461C47.001 65.5884 49.7202 68.3078 53.0627 68.3078C56.4052 68.3078 59.1244 65.5886 59.1244 62.2461C59.1244 59.3092 57.0247 56.8542 54.2479 56.3016V50.0841L63.0769 52.748C64.3886 53.1436 65.3466 54.2283 65.5774 55.5789L69.1165 76.2981C69.1752 76.6417 69.0838 76.9777 68.8589 77.2441C68.6343 77.5103 68.3185 77.6572 67.9699 77.6572H4.0302C3.68161 77.6572 3.36598 77.5105 3.14114 77.2441C2.91645 76.9777 2.82489 76.6419 2.88364 76.2981L4.05161 69.4603C4.16052 68.8225 3.73177 68.2173 3.09411 68.1084C2.45661 67.9991 1.85114 68.4283 1.74208 69.0659L0.57411 75.9037C0.399891 76.9244 0.68286 77.9636 1.35036 78.755C2.01817 79.5462 2.99489 80 4.0302 80H67.9699C69.0052 80 69.9821 79.5462 70.6497 78.7548C71.3172 77.9634 71.6002 76.9242 71.426 75.9036ZM51.5346 23.7639C52.1588 23.6083 52.6599 23.6111 52.6655 23.6112C52.8674 23.6139 53.0636 23.5667 53.238 23.4753C53.2902 23.6052 53.321 23.7447 53.321 23.89V25.6706C53.321 26.2941 52.8138 26.8013 52.1904 26.8013H51.5346V23.7639ZM20.4655 26.8013H19.8097C19.1863 26.8013 18.6791 26.2941 18.6791 25.6706V23.89C18.6791 23.7447 18.71 23.6052 18.7621 23.4755C18.9363 23.5669 19.1325 23.6141 19.3346 23.6112C19.3435 23.6128 19.8432 23.61 20.4655 23.7645V26.8013ZM22.8085 28.1148V25.037C23.1635 25.1434 23.5518 25.1289 23.9102 24.9794C24.525 24.7228 24.9222 24.127 24.9222 23.4612V12.6466C24.9222 11.3303 25.9932 10.2594 27.3094 10.2594H30.543C31.1193 10.2594 31.6822 10.4602 32.1283 10.8248L32.4455 11.0842C33.4457 11.902 34.708 12.3522 36 12.3522C37.2921 12.3522 38.5544 11.9019 39.5546 11.0842L39.8718 10.8248C40.3177 10.4602 40.8808 10.2594 41.4571 10.2594H44.6907C46.0069 10.2594 47.0779 11.3303 47.0779 12.6466V23.4614C47.0779 24.127 47.475 24.723 48.0899 24.9795C48.2952 25.0652 48.5102 25.1067 48.7233 25.1067C48.8822 25.1067 49.0399 25.0834 49.1916 25.0381V28.1148C49.1916 29.8253 48.0091 33.1469 45.8175 35.9341C45.0916 36.8573 44.1585 37.8492 43.0096 38.7161C42.9732 38.7405 42.9383 38.7669 42.905 38.795C41.1252 40.1109 38.8366 41.1191 36 41.1191C33.1635 41.1191 30.8749 40.1109 29.0949 38.7948C29.0616 38.7669 29.0269 38.7405 28.9907 38.7162C27.8418 37.8492 26.9086 36.8573 26.1825 35.9341C23.9911 33.147 22.8085 29.8253 22.8085 28.1148ZM43.675 47.0422L36 52.7787L28.325 47.0422C29.0861 46.0748 29.5125 44.8331 29.5125 43.725V41.8366C31.3174 42.8072 33.471 43.4622 36 43.4622C38.5291 43.4622 40.6829 42.8072 42.4875 41.8366V43.725C42.4875 44.8331 42.914 46.0748 43.675 47.0422ZM26.3699 45.7345C25.7443 45.4963 25.0507 45.4572 24.3946 45.6352C24.3658 45.6419 24.3377 45.6495 24.3104 45.6577L20.263 46.8789C20.9475 43.513 23.6807 40.8339 27.1696 40.315V43.725C27.1696 44.46 26.8415 45.2198 26.3699 45.7345ZM29.5494 55.1389C29.5472 55.1334 29.545 55.128 29.543 55.1227C29.4836 54.9725 29.425 54.8244 29.3669 54.678C29.3565 54.6514 29.346 54.625 29.3355 54.5988C29.2786 54.4555 29.2222 54.3133 29.1666 54.1734C29.1627 54.1636 29.1588 54.1539 29.1549 54.1439C28.9813 53.7075 28.814 53.2889 28.653 52.8878C28.6413 52.8587 28.6296 52.8292 28.6179 52.8003C28.5716 52.6853 28.5261 52.572 28.481 52.4602C28.4644 52.4191 28.448 52.3784 28.4316 52.3378C28.3879 52.2294 28.3444 52.1216 28.3016 52.0161C28.2888 51.9845 28.2763 51.9539 28.2636 51.9225C28.186 51.7309 28.11 51.5442 28.036 51.3622C28.016 51.313 27.9955 51.2628 27.9757 51.2142C27.9466 51.1433 27.9183 51.0742 27.8899 51.0047C27.8593 50.9297 27.8286 50.8553 27.7986 50.7822C27.7874 50.7548 27.7757 50.7259 27.7644 50.6987C27.7554 50.6769 27.7471 50.6567 27.7382 50.635C27.6029 50.3062 27.4743 49.9964 27.3522 49.705C27.3513 49.7027 27.3502 49.7003 27.3493 49.698C27.2843 49.5428 27.2207 49.3913 27.1596 49.2469C27.1279 49.172 27.0966 49.0984 27.066 49.0263L33.6668 53.9597L30.9086 55.1314C30.9038 55.1334 30.8988 55.1355 30.894 55.1377L29.7424 55.6269C29.6771 55.4617 29.6132 55.2998 29.5494 55.1389ZM32.3447 62.312C32.1133 61.7116 31.8802 61.1077 31.6466 60.5044C31.2813 59.5608 30.9324 58.6636 30.5985 57.8089L31.0357 57.6231L32.8219 59.6995L32.3447 62.312ZM36.0227 71.8336C35.9891 71.7639 35.9491 71.6981 35.9029 71.6369C35.3735 70.2377 34.7016 68.4672 33.958 66.5192L35.0518 60.5309H36.9483L38.0421 66.5192C37.2629 68.56 36.563 70.4053 36.0227 71.8336ZM37.3877 58.1881H34.6124L33.2991 56.6616L36 55.5142L38.701 56.6616L37.3877 58.1881ZM40.3535 60.5044C40.1199 61.1077 39.8868 61.7116 39.6554 62.312L39.1782 59.6994L40.9644 57.623L41.4016 57.8088C41.0677 58.6634 40.7188 59.5608 40.3535 60.5044ZM44.8407 49.2469C44.7827 49.3837 44.7224 49.5273 44.661 49.6739C44.653 49.693 44.6449 49.7122 44.6369 49.7314C44.5761 49.8767 44.5143 50.0252 44.4502 50.1797C44.446 50.1898 44.4416 50.2006 44.4374 50.2109C44.3821 50.3442 44.3254 50.4817 44.2677 50.6219C44.2569 50.6481 44.2468 50.6723 44.236 50.6987C44.2232 50.7302 44.2094 50.7634 44.1964 50.7952C44.1708 50.8577 44.1447 50.9214 44.1185 50.9852C44.0863 51.0637 44.0543 51.142 44.0213 51.2225C44.0108 51.2481 44 51.2748 43.9894 51.3006C43.9079 51.5005 43.8241 51.7064 43.7385 51.918C43.725 51.9511 43.7118 51.9836 43.6983 52.0172C43.656 52.1217 43.6129 52.2284 43.5696 52.3358C43.5527 52.3778 43.5357 52.4197 43.5186 52.4622C43.4739 52.573 43.4288 52.6852 43.3832 52.7989C43.3704 52.8306 43.3574 52.8631 43.3446 52.895C43.1857 53.2906 43.0208 53.7033 42.8497 54.1333C42.8441 54.1475 42.8385 54.1614 42.8329 54.1758C42.7775 54.3147 42.7216 54.4559 42.665 54.5983C42.6546 54.6248 42.644 54.6514 42.6333 54.6781C42.5749 54.8253 42.516 54.9741 42.4563 55.1252C42.4552 55.128 42.4541 55.1308 42.453 55.1334C42.3886 55.2962 42.324 55.46 42.258 55.6272L41.1054 55.1375C41.1013 55.1358 41.0972 55.1341 41.0933 55.1323L38.3336 53.96L44.9344 49.0266C44.9035 49.0984 44.8722 49.1719 44.8407 49.2469ZM47.6897 45.6578C47.6896 45.6578 47.6893 45.6577 47.6891 45.6577C47.6882 45.6573 47.6871 45.6572 47.6861 45.6567C47.0065 45.4528 46.2815 45.4866 45.6304 45.7345C45.1586 45.2198 44.8307 44.46 44.8307 43.725V40.3133C48.3414 40.8308 51.0663 43.4847 51.7419 46.8803L47.6897 45.6578ZM56.7815 62.2461C56.7815 64.2967 55.1132 65.9648 53.0627 65.9648C51.0122 65.9648 49.344 64.2967 49.344 62.2461C49.344 60.1955 51.0122 58.5273 53.0627 58.5273C55.1132 58.5273 56.7815 60.1955 56.7815 62.2461Z" fill="#808080"/>
</svg>
