<svg width="13" height="25" viewBox="0 0 13 25" fill="none" xmlns="http://www.w3.org/2000/svg">
<path d="M12.0948 0.00520167L9.23608 0C6.02439 0 3.94885 2.41487 3.94885 6.15253V8.98926H1.07451C0.826133 8.98926 0.625 9.21762 0.625 9.49929V13.6094C0.625 13.8911 0.826362 14.1191 1.07451 14.1191H3.94885V24.4902C3.94885 24.7719 4.14998 25 4.39835 25H8.14855C8.39692 25 8.59805 24.7716 8.59805 24.4902V14.1191H11.9588C12.2072 14.1191 12.4083 13.8911 12.4083 13.6094L12.4097 9.49929C12.4097 9.36404 12.3622 9.23452 12.2781 9.13881C12.1939 9.0431 12.0792 8.98926 11.96 8.98926H8.59805V6.58453C8.59805 5.42872 8.84093 4.84197 10.1686 4.84197L12.0944 4.84119C12.3425 4.84119 12.5436 4.61284 12.5436 4.33143V0.514965C12.5436 0.233815 12.3427 0.00572184 12.0948 0.00520167Z" fill="#5476BE"/>
</svg>
