<svg width="20" height="20" viewBox="0 0 20 20" fill="none" xmlns="http://www.w3.org/2000/svg">
<g clip-path="url(#clip0)">
<path d="M11.2502 8.33324C10.9028 8.33324 10.6076 8.21179 10.3646 7.96871C10.1216 7.72576 10.0002 7.43059 10.0002 7.0833V0H2.91681C2.56965 0 2.27449 0.12145 2.03145 0.364534C1.78837 0.60748 1.66687 0.902646 1.66687 1.24994V18.7501C1.66687 19.0974 1.78837 19.3926 2.03145 19.6356C2.27453 19.8785 2.56965 20 2.91686 20H17.0838C17.4309 20 17.7259 19.8785 17.9689 19.6356C18.2119 19.3924 18.3334 19.0974 18.3334 18.7501V8.33324H11.2502ZM15.0001 16.25C15.0001 16.3714 14.9612 16.4714 14.8831 16.5494C14.8051 16.6273 14.7052 16.6664 14.5838 16.6664H5.41683C5.29538 16.6664 5.1955 16.6274 5.11733 16.5494C5.03939 16.4713 5.00021 16.3714 5.00021 16.25V15.4166C5.00021 15.2949 5.03925 15.195 5.11733 15.117C5.19554 15.0393 5.29542 15 5.41683 15H14.5838C14.7052 15 14.8051 15.0393 14.8831 15.117C14.9612 15.195 15.0001 15.2949 15.0001 15.4166V16.25ZM15.0001 12.9166C15.0001 13.0384 14.9612 13.1379 14.8831 13.2163C14.8051 13.2941 14.7052 13.3333 14.5838 13.3333H5.41683C5.29538 13.3333 5.1955 13.2941 5.11733 13.2163C5.03939 13.1379 5.00021 13.0384 5.00021 12.9166V12.0832C5.00021 11.9618 5.03925 11.8619 5.11733 11.7839C5.19554 11.7058 5.29542 11.6669 5.41683 11.6669H14.5838C14.7052 11.6669 14.8051 11.7058 14.8831 11.7839C14.9611 11.8619 15.0001 11.9618 15.0001 12.0832V12.9166Z" fill="#808080"/>
<path d="M17.4482 4.94846L13.3856 0.885781C12.9514 0.451743 12.3783 0.169483 11.6666 0.0394135V6.66715H18.2945C18.1642 5.95514 17.8819 5.38232 17.4482 4.94846Z" fill="#808080"/>
</g>
<defs>
<clipPath id="clip0">
<rect width="20" height="20" fill="#808080"/>
</clipPath>
</defs>
</svg>
