<svg width="16" height="20" viewBox="0 0 16 20" fill="none" xmlns="http://www.w3.org/2000/svg">
<path d="M5.34375 4.6875C5.66735 4.6875 5.92969 4.42517 5.92969 4.10156C5.92969 3.77796 5.66735 3.51562 5.34375 3.51562C5.02015 3.51562 4.75781 3.77796 4.75781 4.10156C4.75781 4.42517 5.02015 4.6875 5.34375 4.6875Z" fill="#5E6D7C"/>
<path d="M12.6877 1.41455V2.92966H14.2029L12.6877 1.41455Z" fill="#5E6D7C"/>
<path d="M5.34468 5.85938C4.58718 5.85938 3.9639 6.44516 3.90405 7.1875H6.7853C6.72546 6.44516 6.10218 5.85938 5.34468 5.85938Z" fill="#5E6D7C"/>
<path d="M15.619 2.68859V0.585938C15.619 0.262344 15.3567 0 15.0331 0H12.9304L15.619 2.68859Z" fill="#5E6D7C"/>
<path d="M15.6173 4.10156H12.1017C11.7781 4.10156 11.5158 3.83922 11.5158 3.51562V0H0.967285C0.643691 0 0.381348 0.262344 0.381348 0.585938V19.4141C0.381348 19.7377 0.643691 20 0.967285 20H15.033C15.3566 20 15.6189 19.7377 15.6189 19.4141V4.10148C15.6184 4.10152 15.6179 4.10156 15.6173 4.10156ZM2.7267 7.30469C2.7267 6.39059 3.19811 5.58492 3.91021 5.11672C3.70643 4.82977 3.58607 4.47953 3.58607 4.10156C3.58607 3.1323 4.37463 2.34375 5.34389 2.34375C6.31314 2.34375 7.1017 3.1323 7.1017 4.10156C7.1017 4.47957 6.98135 4.82977 6.77756 5.11676C7.48967 5.58492 7.96107 6.39059 7.96107 7.30469V7.77344C7.96107 8.09703 7.69873 8.35938 7.37514 8.35938H3.31264C2.98904 8.35938 2.7267 8.09703 2.7267 7.77344V7.30469ZM7.41373 17.7344H3.31264C2.98904 17.7344 2.7267 17.472 2.7267 17.1484C2.7267 16.8248 2.98904 16.5625 3.31264 16.5625H7.41373C7.73732 16.5625 7.99967 16.8248 7.99967 17.1484C7.99967 17.472 7.73732 17.7344 7.41373 17.7344ZM12.6875 15.3906H3.31264C2.98904 15.3906 2.7267 15.1283 2.7267 14.8047C2.7267 14.4811 2.98904 14.2188 3.31264 14.2188H12.6875C13.0111 14.2188 13.2735 14.4811 13.2735 14.8047C13.2735 15.1283 13.0111 15.3906 12.6875 15.3906ZM12.6875 13.0469H3.31264C2.98904 13.0469 2.7267 12.7845 2.7267 12.4609C2.7267 12.1373 2.98904 11.875 3.31264 11.875H12.6875C13.0111 11.875 13.2735 12.1373 13.2735 12.4609C13.2735 12.7845 13.0111 13.0469 12.6875 13.0469ZM12.6875 10.7031H3.31264C2.98904 10.7031 2.7267 10.4408 2.7267 10.1172C2.7267 9.79359 2.98904 9.53125 3.31264 9.53125H12.6875C13.0111 9.53125 13.2735 9.79359 13.2735 10.1172C13.2735 10.4408 13.0111 10.7031 12.6875 10.7031Z" fill="#5E6D7C"/>
</svg>
