<svg width="176" height="192" viewBox="0 0 176 192" fill="none" xmlns="http://www.w3.org/2000/svg">
<g filter="url(#filter0_d)">
<path d="M87.7904 8.12427C72.0094 8.12427 56.5827 12.777 43.4612 21.4941C30.3397 30.2113 20.1128 42.6013 14.0737 57.0973C8.03451 71.5934 6.45439 87.5444 9.53313 102.933C12.6119 118.322 20.2112 132.458 31.3701 143.553C42.5289 154.648 56.7462 162.203 72.2241 165.264C87.7019 168.325 103.745 166.754 118.325 160.75C132.905 154.745 145.366 144.577 154.134 131.531C162.901 118.485 167.581 103.147 167.581 87.4564C167.58 66.4166 159.173 46.2389 144.209 31.3616C129.246 16.4842 108.952 8.12558 87.7904 8.12427ZM87.7904 139.836C77.3709 139.836 67.1854 136.764 58.5219 131.008C49.8584 125.253 43.106 117.072 39.1187 107.501C35.1313 97.93 34.088 87.3983 36.1208 77.2377C38.1535 67.0771 43.171 57.744 50.5387 50.4186C57.9064 43.0932 67.2934 38.1046 77.5127 36.0835C87.732 34.0625 98.3246 35.0997 107.951 39.0642C117.577 43.0287 125.805 49.7423 131.594 58.356C137.383 66.9697 140.472 77.0967 140.472 87.4564C140.472 101.348 134.922 114.671 125.042 124.494C115.162 134.317 101.763 139.836 87.7904 139.836Z" fill="#19DDD3"/>
</g>
<path d="M46.8759 54.5756L21.3474 43.6736C12.7687 56.5418 8.16689 71.6255 8.10962 87.0637C8.10962 87.4205 8.10962 87.7723 8.10962 88.1291C8.15855 94.5787 8.99537 100.998 10.6017 107.247L39.011 106.995C37.9885 104.475 37.1686 101.878 36.5589 99.2294C34.7537 91.4961 34.7446 83.4555 36.5322 75.7182C38.3199 67.9809 41.8574 60.7503 46.8759 54.5756Z" fill="#FF8B03"/>
<path d="M21.148 43.7182L46.4822 54.8334C50.9927 49.1391 56.6452 44.4399 63.0805 41.0343C69.5157 37.6287 76.5931 35.5911 83.8629 35.0511L86.4995 7.95459C73.4995 8.16727 60.7489 11.5371 49.3585 17.7705C37.9681 24.0039 28.2834 32.9118 21.148 43.7182Z" fill="#FF8B03"/>
<g filter="url(#filter1_i)">
<path d="M166.833 75.458H139.241C142.286 88.3097 140.337 101.83 133.785 113.315C127.233 124.799 116.562 133.401 103.906 137.398C91.2495 141.395 77.5418 140.494 65.5253 134.874C53.5087 129.255 44.0693 119.331 39.0958 107.089H10.6216C15.7119 126.803 28.2266 143.819 45.5786 154.619C62.9306 165.418 83.7929 169.175 103.852 165.114C123.912 161.052 141.635 149.482 153.357 132.795C165.078 116.108 169.903 95.5815 166.833 75.458Z" fill="#2482FF"/>
</g>
<path opacity="0.15" d="M175.75 87.5C175.75 135.686 136.464 174.75 88 174.75C39.5357 174.75 0.25 135.686 0.25 87.5C0.25 39.3145 39.5357 0.25 88 0.25C136.464 0.25 175.75 39.3145 175.75 87.5Z" stroke="black" stroke-width="0.5"/>
<path opacity="0.15" d="M131.75 87.5C131.75 111.384 112.165 130.75 88 130.75C63.8348 130.75 44.25 111.384 44.25 87.5C44.25 63.6164 63.8348 44.25 88 44.25C112.165 44.25 131.75 63.6164 131.75 87.5Z" stroke="black" stroke-width="0.5"/>
<path d="M62.6406 73.0938C61.2344 73.0938 60.1094 73.4688 59.2188 74.2188L59.5938 69.7656H67.375V67.1875H57.3906L56.5938 76.4688L58.7031 77.1719C59.4531 75.9531 60.6719 75.3438 62.125 75.3438C64.375 75.3438 65.875 76.8438 65.875 79.0938C65.875 81.3438 64.2812 82.8438 61.8906 82.8438C60.0625 82.8438 58.4688 81.8594 57.6719 80.4531L55.7969 81.9531C56.875 83.9688 59.125 85.2344 61.9375 85.2344C65.9219 85.2344 68.6875 82.7031 68.6875 79.0938C68.6875 75.625 66.1094 73.0938 62.6406 73.0938ZM78.7656 73.6094C76.6094 73.6094 74.875 74.5 73.8438 76.0469C73.7969 72.7188 75.0156 69.3438 78.7188 69.3438C80.2188 69.3438 81.5312 69.9531 82.375 71.1719L84.25 69.4375C82.9844 67.75 80.875 66.9531 78.6719 66.9531C73.5156 66.9531 71.2656 71.3594 71.2656 76.3281C71.2656 81.0625 73.375 85.2344 78.2969 85.2344C81.8125 85.2344 84.7656 82.7969 84.7656 79.2344C84.7656 75.7188 82.1875 73.6094 78.7656 73.6094ZM78.2969 82.8906C76.0938 82.8906 74.5938 81.4844 74.5938 79.2812C74.5938 77.1719 76.2812 75.8125 78.3906 75.8125C80.5 75.8125 82.0469 77.1719 82.0469 79.375C82.0469 81.4844 80.3594 82.8906 78.2969 82.8906Z" fill="#0B2239"/>
<path d="M100.906 101.609C98.75 101.609 97.0156 102.5 95.9844 104.047C95.9375 100.719 97.1562 97.3438 100.859 97.3438C102.359 97.3438 103.672 97.9531 104.516 99.1719L106.391 97.4375C105.125 95.75 103.016 94.9531 100.812 94.9531C95.6562 94.9531 93.4062 99.3594 93.4062 104.328C93.4062 109.062 95.5156 113.234 100.438 113.234C103.953 113.234 106.906 110.797 106.906 107.234C106.906 103.719 104.328 101.609 100.906 101.609ZM100.438 110.891C98.2344 110.891 96.7344 109.484 96.7344 107.281C96.7344 105.172 98.4219 103.812 100.531 103.812C102.641 103.812 104.188 105.172 104.188 107.375C104.188 109.484 102.5 110.891 100.438 110.891Z" fill="#0B2239"/>
<line x1="56.6464" y1="117.646" x2="118.126" y2="56.1668" stroke="#D9D9D9"/>
<path d="M110.871 189H112.238V178.609H111.281C111.145 179.977 110.652 180.359 108.82 180.359H108.41V181.426H110.871V189ZM118.773 182.629H118.582L121.508 179.594V178.609H114.727V179.867H119.676L116.504 183.203L117.242 183.969C117.57 183.75 117.98 183.641 118.445 183.641C119.621 183.641 120.414 184.461 120.414 185.691C120.414 187.086 119.484 187.934 117.926 187.934C116.723 187.934 115.875 187.414 115.355 186.293L114.289 186.949C114.918 188.344 116.285 189.137 118.035 189.137C120.195 189.137 121.809 187.66 121.809 185.691C121.809 183.914 120.523 182.629 118.773 182.629Z" fill="#606F7E"/>
<path d="M5.05859 29.3828C3.77344 29.3828 2.67969 29.957 2.07812 30.9688V30.8047C2.05078 28.8359 2.76172 26.6484 5.08594 26.6484C6.01562 26.6484 6.80859 27.0312 7.35547 27.7969L8.28516 26.9219C7.51953 25.9375 6.31641 25.4727 5.08594 25.4727C2.02344 25.4727 0.820312 28.1523 0.820312 30.9414C0.820312 33.5938 1.94141 36.1367 4.83984 36.1367C6.80859 36.1367 8.55859 34.7148 8.55859 32.6641C8.55859 30.6133 7.02734 29.3828 5.05859 29.3828ZM4.83984 34.9609C3.47266 34.9609 2.51562 34.0586 2.51562 32.6914C2.51562 31.3789 3.60938 30.5312 4.92188 30.5312C6.23438 30.5312 7.24609 31.3789 7.24609 32.7461C7.24609 34.0859 6.125 34.9609 4.83984 34.9609Z" fill="#606F7E"/>
<path d="M155.293 18.0273C154.445 18.0273 153.762 18.2734 153.242 18.7656L153.488 15.8672H158.082V14.6094H152.395L151.93 20.0234L152.996 20.3516C153.434 19.5859 154.199 19.1758 155.129 19.1758C156.551 19.1758 157.48 20.1328 157.48 21.5547C157.48 22.9766 156.469 23.9336 154.965 23.9336C153.871 23.9336 152.887 23.332 152.422 22.5117L151.438 23.2227C152.066 24.3711 153.352 25.1367 154.965 25.1367C157.262 25.1367 158.848 23.6602 158.848 21.5547C158.848 19.5039 157.344 18.0273 155.293 18.0273Z" fill="#606F7E"/>
<defs>
<filter id="filter0_d" x="3.99994" y="8.12427" width="167.581" height="166.664" filterUnits="userSpaceOnUse" color-interpolation-filters="sRGB">
<feFlood flood-opacity="0" result="BackgroundImageFix"/>
<feColorMatrix in="SourceAlpha" type="matrix" values="0 0 0 0 0 0 0 0 0 0 0 0 0 0 0 0 0 0 127 0"/>
<feOffset dy="4"/>
<feGaussianBlur stdDeviation="2"/>
<feColorMatrix type="matrix" values="0 0 0 0 0 0 0 0 0 0 0 0 0 0 0 0 0 0 0.25 0"/>
<feBlend mode="normal" in2="BackgroundImageFix" result="effect1_dropShadow"/>
<feBlend mode="normal" in="SourceGraphic" in2="effect1_dropShadow" result="shape"/>
</filter>
<filter id="filter1_i" x="10.6216" y="75.458" width="157.114" height="91.252" filterUnits="userSpaceOnUse" color-interpolation-filters="sRGB">
<feFlood flood-opacity="0" result="BackgroundImageFix"/>
<feBlend mode="normal" in="SourceGraphic" in2="BackgroundImageFix" result="shape"/>
<feColorMatrix in="SourceAlpha" type="matrix" values="0 0 0 0 0 0 0 0 0 0 0 0 0 0 0 0 0 0 127 0" result="hardAlpha"/>
<feOffset/>
<feGaussianBlur stdDeviation="4"/>
<feComposite in2="hardAlpha" operator="arithmetic" k2="-1" k3="1"/>
<feColorMatrix type="matrix" values="0 0 0 0 0 0 0 0 0 0 0 0 0 0 0 0 0 0 0.2 0"/>
<feBlend mode="normal" in2="shape" result="effect1_innerShadow"/>
</filter>
</defs>
</svg>
