<svg width="176" height="175" viewBox="0 0 176 175" fill="none" xmlns="http://www.w3.org/2000/svg">
<g filter="url(#filter0_d)">
<path d="M87.7904 8.12427C72.0094 8.12427 56.5827 12.777 43.4612 21.4941C30.3398 30.2113 20.1128 42.6013 14.0737 57.0973C8.03453 71.5934 6.45441 87.5444 9.53314 102.933C12.6119 118.322 20.2112 132.458 31.3701 143.553C42.529 154.648 56.7463 162.203 72.2241 165.264C87.7019 168.325 103.745 166.754 118.325 160.75C132.905 154.745 145.366 144.577 154.134 131.531C162.901 118.485 167.581 103.147 167.581 87.4564C167.58 66.4166 159.173 46.2389 144.209 31.3616C129.246 16.4842 108.952 8.12558 87.7904 8.12427ZM87.7904 139.836C77.3709 139.836 67.1854 136.764 58.5219 131.008C49.8584 125.253 43.106 117.072 39.1187 107.501C35.1313 97.93 34.088 87.3983 36.1208 77.2377C38.1535 67.0771 43.171 57.744 50.5387 50.4186C57.9064 43.0932 67.2934 38.1046 77.5127 36.0835C87.732 34.0625 98.3246 35.0997 107.951 39.0642C117.577 43.0287 125.805 49.7423 131.594 58.356C137.383 66.9697 140.472 77.0967 140.472 87.4564C140.472 101.348 134.922 114.671 125.042 124.494C115.162 134.317 101.763 139.836 87.7904 139.836Z" fill="#19DDD3"/>
</g>
<path d="M46.876 54.5756L21.3474 43.6736C12.7688 56.5418 8.1669 71.6255 8.10963 87.0637C8.10963 87.4205 8.10963 87.7723 8.10963 88.1291C8.15857 94.5787 8.99538 100.998 10.6017 107.247L39.0111 106.995C37.9885 104.475 37.1686 101.878 36.5589 99.2294C34.7537 91.4961 34.7446 83.4555 36.5322 75.7182C38.3199 67.9809 41.8574 60.7503 46.876 54.5756Z" fill="#FF8B03"/>
<path d="M21.148 43.7182L46.4822 54.8334C50.9928 49.1391 56.6452 44.4399 63.0805 41.0343C69.5158 37.6287 76.5932 35.5911 83.863 35.0511L86.4995 7.95459C73.4995 8.16727 60.749 11.5371 49.3586 17.7705C37.9682 24.0039 28.2835 32.9118 21.148 43.7182Z" fill="#003262"/>
<g filter="url(#filter1_i)">
<path d="M166.833 75.458H139.241C142.286 88.3097 140.337 101.83 133.785 113.315C127.233 124.799 116.562 133.401 103.906 137.398C91.2495 141.395 77.5418 140.494 65.5253 134.874C53.5087 129.255 44.0693 119.331 39.0958 107.089H10.6216C15.7119 126.803 28.2266 143.819 45.5786 154.619C62.9306 165.418 83.7929 169.175 103.852 165.114C123.912 161.052 141.635 149.482 153.357 132.795C165.078 116.108 169.903 95.5815 166.833 75.458Z" fill="#2482FF"/>
</g>
<path d="M95.0859 86.8203C95.0859 87.5781 94.957 88.2422 94.6992 88.8125C94.4492 89.3828 94.1094 89.8711 93.6797 90.2773C93.2578 90.6836 92.7617 91.0195 92.1914 91.2852C91.6289 91.5508 91.0352 91.7617 90.4102 91.918C89.7852 92.0742 89.1484 92.1836 88.5 92.2461C87.8516 92.3086 87.2344 92.3398 86.6484 92.3398C85.9531 92.3398 85.1992 92.2578 84.3867 92.0938C83.5742 91.9375 82.7852 91.6992 82.0195 91.3789C81.2539 91.0508 80.5586 90.6445 79.9336 90.1602C79.3086 89.6758 78.8359 89.1055 78.5156 88.4492L82.6992 86.4688C82.6992 87.0078 82.8086 87.5156 83.0273 87.9922C83.2539 88.4609 83.5508 88.8711 83.918 89.2227C84.2852 89.5742 84.7031 89.8516 85.1719 90.0547C85.6484 90.2578 86.1406 90.3594 86.6484 90.3594C87.1328 90.3594 87.6055 90.2773 88.0664 90.1133C88.5273 89.9414 88.9336 89.6992 89.2852 89.3867C89.6445 89.0742 89.9336 88.7031 90.1523 88.2734C90.3711 87.8359 90.4805 87.3516 90.4805 86.8203C90.4805 86.2344 90.3789 85.7188 90.1758 85.2734C89.9805 84.8281 89.707 84.4609 89.3555 84.1719C89.0117 83.875 88.6055 83.6523 88.1367 83.5039C87.6758 83.3555 87.1797 83.2812 86.6484 83.2812C85.4141 83.2812 84.3477 83.332 83.4492 83.4336C82.5508 83.5273 81.8086 83.6328 81.2227 83.75C80.5352 83.8906 79.9609 84.0469 79.5 84.2188L81.2578 75.125H93.6914V77.2812H85.0898L84.2578 81.3945C84.6016 81.3633 84.9688 81.3398 85.3594 81.3242C85.7578 81.3008 86.1875 81.2891 86.6484 81.2891C87.6875 81.2891 88.6172 81.3711 89.4375 81.5352C90.2656 81.6992 90.9922 81.9219 91.6172 82.2031C92.2422 82.4766 92.7734 82.7969 93.2109 83.1641C93.6484 83.5312 94.0039 83.9219 94.2773 84.3359C94.5586 84.7422 94.7617 85.1602 94.8867 85.5898C95.0195 86.0117 95.0859 86.4219 95.0859 86.8203Z" fill="#0B2239"/>
<path opacity="0.15" d="M175.75 87.5C175.75 135.686 136.464 174.75 88 174.75C39.5357 174.75 0.25 135.686 0.25 87.5C0.25 39.3145 39.5357 0.25 88 0.25C136.464 0.25 175.75 39.3145 175.75 87.5Z" stroke="black" stroke-width="0.5"/>
<path opacity="0.15" d="M131.75 87.5C131.75 111.384 112.165 130.75 88 130.75C63.8348 130.75 44.25 111.384 44.25 87.5C44.25 63.6164 63.8348 44.25 88 44.25C112.165 44.25 131.75 63.6164 131.75 87.5Z" stroke="black" stroke-width="0.5"/>
<defs>
<filter id="filter0_d" x="3.99995" y="8.12427" width="167.581" height="166.664" filterUnits="userSpaceOnUse" color-interpolation-filters="sRGB">
<feFlood flood-opacity="0" result="BackgroundImageFix"/>
<feColorMatrix in="SourceAlpha" type="matrix" values="0 0 0 0 0 0 0 0 0 0 0 0 0 0 0 0 0 0 127 0"/>
<feOffset dy="4"/>
<feGaussianBlur stdDeviation="2"/>
<feColorMatrix type="matrix" values="0 0 0 0 0 0 0 0 0 0 0 0 0 0 0 0 0 0 0.25 0"/>
<feBlend mode="normal" in2="BackgroundImageFix" result="effect1_dropShadow"/>
<feBlend mode="normal" in="SourceGraphic" in2="effect1_dropShadow" result="shape"/>
</filter>
<filter id="filter1_i" x="10.6216" y="75.458" width="157.114" height="91.252" filterUnits="userSpaceOnUse" color-interpolation-filters="sRGB">
<feFlood flood-opacity="0" result="BackgroundImageFix"/>
<feBlend mode="normal" in="SourceGraphic" in2="BackgroundImageFix" result="shape"/>
<feColorMatrix in="SourceAlpha" type="matrix" values="0 0 0 0 0 0 0 0 0 0 0 0 0 0 0 0 0 0 127 0" result="hardAlpha"/>
<feOffset/>
<feGaussianBlur stdDeviation="4"/>
<feComposite in2="hardAlpha" operator="arithmetic" k2="-1" k3="1"/>
<feColorMatrix type="matrix" values="0 0 0 0 0 0 0 0 0 0 0 0 0 0 0 0 0 0 0.2 0"/>
<feBlend mode="normal" in2="shape" result="effect1_innerShadow"/>
</filter>
</defs>
</svg>
