<svg width="176" height="175" viewBox="0 0 176 175" fill="none" xmlns="http://www.w3.org/2000/svg">
<g filter="url(#filter0_d)">
<path d="M87.7904 8.12427C72.0094 8.12427 56.5827 12.777 43.4612 21.4941C30.3398 30.2113 20.1128 42.6013 14.0737 57.0973C8.03453 71.5934 6.45441 87.5444 9.53314 102.933C12.6119 118.322 20.2112 132.458 31.3701 143.553C42.529 154.648 56.7463 162.203 72.2241 165.264C87.7019 168.325 103.745 166.754 118.325 160.75C132.905 154.745 145.366 144.577 154.134 131.531C162.901 118.485 167.581 103.147 167.581 87.4564C167.58 66.4166 159.173 46.2389 144.209 31.3616C129.246 16.4842 108.952 8.12558 87.7904 8.12427ZM87.7904 139.836C77.3709 139.836 67.1854 136.764 58.5219 131.008C49.8584 125.253 43.106 117.072 39.1187 107.501C35.1313 97.93 34.088 87.3983 36.1208 77.2377C38.1535 67.0771 43.171 57.744 50.5387 50.4186C57.9064 43.0932 67.2934 38.1046 77.5127 36.0835C87.732 34.0625 98.3246 35.0997 107.951 39.0642C117.577 43.0287 125.805 49.7423 131.594 58.356C137.383 66.9697 140.472 77.0967 140.472 87.4564C140.472 101.348 134.922 114.671 125.042 124.494C115.162 134.317 101.763 139.836 87.7904 139.836Z" fill="#19DDD3"/>
</g>
<path d="M46.876 54.5756L21.3474 43.6736C12.7688 56.5418 8.1669 71.6255 8.10963 87.0637C8.10963 87.4205 8.10963 87.7723 8.10963 88.1291C8.15857 94.5787 8.99538 100.998 10.6017 107.247L39.0111 106.995C37.9885 104.475 37.1686 101.878 36.5589 99.2294C34.7537 91.4961 34.7446 83.4555 36.5322 75.7182C38.3199 67.9809 41.8574 60.7503 46.876 54.5756Z" fill="#FF8B03"/>
<path d="M21.148 43.7182L46.4822 54.8334C50.9928 49.1391 56.6452 44.4399 63.0805 41.0343C69.5158 37.6287 76.5932 35.5911 83.863 35.0511L86.4995 7.95459C73.4995 8.16727 60.749 11.5371 49.3586 17.7705C37.9682 24.0039 28.2835 32.9118 21.148 43.7182Z" fill="#003262"/>
<g filter="url(#filter1_i)">
<path d="M166.833 75.458H139.241C142.286 88.3097 140.337 101.83 133.785 113.315C127.233 124.799 116.562 133.401 103.906 137.398C91.2495 141.395 77.5418 140.494 65.5253 134.874C53.5087 129.255 44.0693 119.331 39.0958 107.089H10.6216C15.7119 126.803 28.2266 143.819 45.5786 154.619C62.9306 165.418 83.7929 169.175 103.852 165.114C123.912 161.052 141.635 149.482 153.357 132.795C165.078 116.108 169.903 95.5815 166.833 75.458Z" fill="#2482FF"/>
</g>
<path d="M82.2891 91H73.1367V88.8555H75.3867V76.2695H73.1367V74.125H80.0391V88.8555H82.2891V91ZM100.125 85.8203C100.125 86.5781 99.9961 87.2422 99.7383 87.8125C99.4883 88.3828 99.1484 88.8711 98.7188 89.2773C98.2969 89.6836 97.8008 90.0195 97.2305 90.2852C96.668 90.5508 96.0742 90.7617 95.4492 90.918C94.8242 91.0742 94.1875 91.1836 93.5391 91.2461C92.8906 91.3086 92.2734 91.3398 91.6875 91.3398C90.9922 91.3398 90.2383 91.2578 89.4258 91.0938C88.6133 90.9375 87.8242 90.6992 87.0586 90.3789C86.293 90.0508 85.5977 89.6445 84.9727 89.1602C84.3477 88.6758 83.875 88.1055 83.5547 87.4492L87.7383 85.4688C87.7383 86.0078 87.8477 86.5156 88.0664 86.9922C88.293 87.4609 88.5898 87.8711 88.957 88.2227C89.3242 88.5742 89.7422 88.8516 90.2109 89.0547C90.6875 89.2578 91.1797 89.3594 91.6875 89.3594C92.1719 89.3594 92.6445 89.2773 93.1055 89.1133C93.5664 88.9414 93.9727 88.6992 94.3242 88.3867C94.6836 88.0742 94.9727 87.7031 95.1914 87.2734C95.4102 86.8359 95.5195 86.3516 95.5195 85.8203C95.5195 85.2344 95.418 84.7188 95.2148 84.2734C95.0195 83.8281 94.7461 83.4609 94.3945 83.1719C94.0508 82.875 93.6445 82.6523 93.1758 82.5039C92.7148 82.3555 92.2188 82.2812 91.6875 82.2812C90.4531 82.2812 89.3867 82.332 88.4883 82.4336C87.5898 82.5273 86.8477 82.6328 86.2617 82.75C85.5742 82.8906 85 83.0469 84.5391 83.2188L86.2969 74.125H98.7305V76.2812H90.1289L89.2969 80.3945C89.6406 80.3633 90.0078 80.3398 90.3984 80.3242C90.7969 80.3008 91.2266 80.2891 91.6875 80.2891C92.7266 80.2891 93.6562 80.3711 94.4766 80.5352C95.3047 80.6992 96.0312 80.9219 96.6562 81.2031C97.2812 81.4766 97.8125 81.7969 98.25 82.1641C98.6875 82.5312 99.043 82.9219 99.3164 83.3359C99.5977 83.7422 99.8008 84.1602 99.9258 84.5898C100.059 85.0117 100.125 85.4219 100.125 85.8203Z" fill="#0B2239"/>
<path opacity="0.15" d="M175.75 87.5C175.75 135.686 136.464 174.75 88 174.75C39.5357 174.75 0.25 135.686 0.25 87.5C0.25 39.3145 39.5357 0.25 88 0.25C136.464 0.25 175.75 39.3145 175.75 87.5Z" stroke="black" stroke-width="0.5"/>
<path opacity="0.15" d="M131.75 87.5C131.75 111.384 112.165 130.75 88 130.75C63.8348 130.75 44.25 111.384 44.25 87.5C44.25 63.6164 63.8348 44.25 88 44.25C112.165 44.25 131.75 63.6164 131.75 87.5Z" stroke="black" stroke-width="0.5"/>
<defs>
<filter id="filter0_d" x="3.99995" y="8.12427" width="167.581" height="166.664" filterUnits="userSpaceOnUse" color-interpolation-filters="sRGB">
<feFlood flood-opacity="0" result="BackgroundImageFix"/>
<feColorMatrix in="SourceAlpha" type="matrix" values="0 0 0 0 0 0 0 0 0 0 0 0 0 0 0 0 0 0 127 0"/>
<feOffset dy="4"/>
<feGaussianBlur stdDeviation="2"/>
<feColorMatrix type="matrix" values="0 0 0 0 0 0 0 0 0 0 0 0 0 0 0 0 0 0 0.25 0"/>
<feBlend mode="normal" in2="BackgroundImageFix" result="effect1_dropShadow"/>
<feBlend mode="normal" in="SourceGraphic" in2="effect1_dropShadow" result="shape"/>
</filter>
<filter id="filter1_i" x="10.6216" y="75.458" width="157.114" height="91.252" filterUnits="userSpaceOnUse" color-interpolation-filters="sRGB">
<feFlood flood-opacity="0" result="BackgroundImageFix"/>
<feBlend mode="normal" in="SourceGraphic" in2="BackgroundImageFix" result="shape"/>
<feColorMatrix in="SourceAlpha" type="matrix" values="0 0 0 0 0 0 0 0 0 0 0 0 0 0 0 0 0 0 127 0" result="hardAlpha"/>
<feOffset/>
<feGaussianBlur stdDeviation="4"/>
<feComposite in2="hardAlpha" operator="arithmetic" k2="-1" k3="1"/>
<feColorMatrix type="matrix" values="0 0 0 0 0 0 0 0 0 0 0 0 0 0 0 0 0 0 0.2 0"/>
<feBlend mode="normal" in2="shape" result="effect1_innerShadow"/>
</filter>
</defs>
</svg>
