<svg width="197" height="209" viewBox="0 0 197 209" fill="none" xmlns="http://www.w3.org/2000/svg">
<g filter="url(#filter0_d)">
<path d="M108.79 25.1243C93.0094 25.1243 77.5827 29.777 64.4612 38.4941C51.3397 47.2113 41.1128 59.6013 35.0737 74.0973C29.0345 88.5934 27.4544 104.544 30.5331 119.933C33.6119 135.322 41.2112 149.458 52.3701 160.553C63.5289 171.648 77.7462 179.203 93.2241 182.264C108.702 185.325 124.745 183.754 139.325 177.75C153.905 171.745 166.366 161.577 175.134 148.531C183.901 135.485 188.581 120.147 188.581 104.456C188.58 83.4166 180.173 63.2389 165.209 48.3616C150.246 33.4842 129.952 25.1256 108.79 25.1243ZM108.79 156.836C98.3709 156.836 88.1854 153.764 79.5219 148.008C70.8584 142.253 64.106 134.072 60.1187 124.501C56.1313 114.93 55.088 104.398 57.1208 94.2377C59.1535 84.0771 64.171 74.744 71.5387 67.4186C78.9064 60.0932 88.2934 55.1046 98.5127 53.0835C108.732 51.0625 119.325 52.0997 128.951 56.0642C138.577 60.0287 146.805 66.7423 152.594 75.356C158.383 83.9697 161.472 94.0967 161.472 104.456C161.472 118.348 155.922 131.671 146.042 141.494C136.162 151.317 122.763 156.836 108.79 156.836Z" fill="#19DDD3"/>
</g>
<path d="M67.8759 71.5756L42.3474 60.6736C33.7687 73.5418 29.1669 88.6255 29.1096 104.064C29.1096 104.42 29.1096 104.772 29.1096 105.129C29.1586 111.579 29.9954 117.998 31.6017 124.247L60.011 123.995C58.9885 121.475 58.1686 118.878 57.5589 116.229C55.7537 108.496 55.7446 100.456 57.5322 92.7182C59.3199 84.9809 62.8574 77.7503 67.8759 71.5756Z" fill="#FF8B03"/>
<path d="M42.148 60.7182L67.4822 71.8334C71.9927 66.1391 77.6452 61.4399 84.0805 58.0343C90.5157 54.6287 97.5931 52.5911 104.863 52.0511L107.5 24.9546C94.4995 25.1673 81.7489 28.5371 70.3585 34.7705C58.9681 41.0039 49.2834 49.9118 42.148 60.7182Z" fill="#19DDD3"/>
<g filter="url(#filter1_i)">
<path d="M187.833 92.458H160.241C163.286 105.31 161.337 118.83 154.785 130.315C148.233 141.799 137.562 150.401 124.906 154.398C112.25 158.395 98.5418 157.494 86.5253 151.874C74.5087 146.255 65.0693 136.331 60.0958 124.089H31.6216C36.7119 143.803 49.2266 160.819 66.5786 171.619C83.9306 182.418 104.793 186.175 124.852 182.114C144.912 178.052 162.635 166.482 174.357 149.795C186.078 133.108 190.903 112.582 187.833 92.458Z" fill="#2482FF"/>
</g>
<path opacity="0.15" d="M196.75 104.5C196.75 152.686 157.464 191.75 109 191.75C60.5357 191.75 21.25 152.686 21.25 104.5C21.25 56.3145 60.5357 17.25 109 17.25C157.464 17.25 196.75 56.3145 196.75 104.5Z" stroke="black" stroke-width="0.5"/>
<path d="M143.621 199.629H143.43L146.355 196.594V195.609H139.574V196.867H144.523L141.352 200.203L142.09 200.969C142.418 200.75 142.828 200.641 143.293 200.641C144.469 200.641 145.262 201.461 145.262 202.691C145.262 204.086 144.332 204.934 142.773 204.934C141.57 204.934 140.723 204.414 140.203 203.293L139.137 203.949C139.766 205.344 141.133 206.137 142.883 206.137C145.043 206.137 146.656 204.66 146.656 202.691C146.656 200.914 145.371 199.629 143.621 199.629ZM151.961 199.629H151.77L154.695 196.594V195.609H147.914V196.867H152.863L149.691 200.203L150.43 200.969C150.758 200.75 151.168 200.641 151.633 200.641C152.809 200.641 153.602 201.461 153.602 202.691C153.602 204.086 152.672 204.934 151.113 204.934C149.91 204.934 149.062 204.414 148.543 203.293L147.477 203.949C148.105 205.344 149.473 206.137 151.223 206.137C153.383 206.137 154.996 204.66 154.996 202.691C154.996 200.914 153.711 199.629 151.961 199.629Z" fill="#606F7E"/>
<path d="M2.87109 101H4.23828V90.6094H3.28125C3.14453 91.9766 2.65234 92.3594 0.820312 92.3594H0.410156V93.4258H2.87109V101ZM11.0742 101.137C13.5625 101.137 15.1758 99.0312 15.1758 95.8047C15.1758 92.5781 13.5625 90.4727 11.0742 90.4727C8.58594 90.4727 6.97266 92.5781 6.97266 95.8047C6.97266 99.0312 8.58594 101.137 11.0742 101.137ZM11.0742 99.9062C9.43359 99.9062 8.36719 98.293 8.36719 95.8047C8.36719 93.3164 9.43359 91.7031 11.0742 91.7031C12.7148 91.7031 13.7812 93.3164 13.7812 95.8047C13.7812 98.293 12.7148 99.9062 11.0742 99.9062Z" fill="#606F7E"/>
<path d="M140.613 10.1719H138.891V3.60938H137.25L132.41 10.2812V11.3477H137.523V14H138.891V11.3477H140.613V10.1719ZM133.859 10.1719L137.523 5.11328V10.1719H133.859ZM145.672 14.1367C148.16 14.1367 149.773 12.0312 149.773 8.80469C149.773 5.57812 148.16 3.47266 145.672 3.47266C143.184 3.47266 141.57 5.57812 141.57 8.80469C141.57 12.0312 143.184 14.1367 145.672 14.1367ZM145.672 12.9062C144.031 12.9062 142.965 11.293 142.965 8.80469C142.965 6.31641 144.031 4.70312 145.672 4.70312C147.312 4.70312 148.379 6.31641 148.379 8.80469C148.379 11.293 147.312 12.9062 145.672 12.9062Z" fill="#606F7E"/>
<path opacity="0.15" d="M152.75 104.5C152.75 128.384 133.165 147.75 109 147.75C84.8348 147.75 65.25 128.384 65.25 104.5C65.25 80.6164 84.8348 61.25 109 61.25C133.165 61.25 152.75 80.6164 152.75 104.5Z" stroke="black" stroke-width="0.5"/>
<path d="M83.0625 90.5579L87.7969 85.7297V83.6672H76.0312V86.1985H84.2344L79.0312 91.5422L80.4375 93.0422C80.9531 92.7141 81.6094 92.5266 82.3594 92.5266C84.2812 92.5266 85.5938 93.8391 85.5938 95.8079C85.5938 97.9641 84.0938 99.3235 81.6562 99.3235C79.6875 99.3235 78.2344 98.386 77.3906 96.5579L75.2344 97.8235C76.3125 100.308 78.7031 101.714 81.7969 101.714C85.5938 101.714 88.3594 99.1829 88.3594 95.8079C88.3594 92.7141 86.1562 90.5579 83.0625 90.5579ZM98.4375 90.0891C96.2812 90.0891 94.5469 90.9797 93.5156 92.5266C93.4688 89.1985 94.6875 85.8235 98.3906 85.8235C99.8906 85.8235 101.203 86.4329 102.047 87.6516L103.922 85.9172C102.656 84.2297 100.547 83.4329 98.3438 83.4329C93.1875 83.4329 90.9375 87.8391 90.9375 92.8079C90.9375 97.5422 93.0469 101.714 97.9688 101.714C101.484 101.714 104.438 99.2766 104.438 95.7141C104.438 92.1985 101.859 90.0891 98.4375 90.0891ZM97.9688 99.3704C95.7656 99.3704 94.2656 97.9641 94.2656 95.761C94.2656 93.6516 95.9531 92.2922 98.0625 92.2922C100.172 92.2922 101.719 93.6516 101.719 95.8547C101.719 97.9641 100.031 99.3704 97.9688 99.3704Z" fill="#0B2239"/>
<path d="M114.969 129.48H117.781V111.667H115.719C115.484 114.058 114.641 114.714 111.547 114.714H110.797V116.917H114.969V129.48ZM125.797 126.948L129.078 124.089C132.5 121.089 134.047 119.073 134.047 116.589C134.047 113.542 131.703 111.433 128.234 111.433C124.578 111.433 122.047 113.636 121.766 117.245L124.391 117.761C124.531 115.183 125.938 113.823 128.094 113.823C129.922 113.823 131.188 115.042 131.188 116.823C131.188 118.417 130.297 119.964 127.906 122.12L121.719 127.652V129.48H134.469V126.948H125.797Z" fill="#0B2239"/>
<line x1="76.6464" y1="134.126" x2="138.126" y2="72.6465" stroke="#D9D9D9"/>
<defs>
<filter id="filter0_d" x="24.9999" y="25.1243" width="167.581" height="166.664" filterUnits="userSpaceOnUse" color-interpolation-filters="sRGB">
<feFlood flood-opacity="0" result="BackgroundImageFix"/>
<feColorMatrix in="SourceAlpha" type="matrix" values="0 0 0 0 0 0 0 0 0 0 0 0 0 0 0 0 0 0 127 0"/>
<feOffset dy="4"/>
<feGaussianBlur stdDeviation="2"/>
<feColorMatrix type="matrix" values="0 0 0 0 0 0 0 0 0 0 0 0 0 0 0 0 0 0 0.25 0"/>
<feBlend mode="normal" in2="BackgroundImageFix" result="effect1_dropShadow"/>
<feBlend mode="normal" in="SourceGraphic" in2="effect1_dropShadow" result="shape"/>
</filter>
<filter id="filter1_i" x="31.6216" y="92.458" width="157.114" height="91.252" filterUnits="userSpaceOnUse" color-interpolation-filters="sRGB">
<feFlood flood-opacity="0" result="BackgroundImageFix"/>
<feBlend mode="normal" in="SourceGraphic" in2="BackgroundImageFix" result="shape"/>
<feColorMatrix in="SourceAlpha" type="matrix" values="0 0 0 0 0 0 0 0 0 0 0 0 0 0 0 0 0 0 127 0" result="hardAlpha"/>
<feOffset/>
<feGaussianBlur stdDeviation="4"/>
<feComposite in2="hardAlpha" operator="arithmetic" k2="-1" k3="1"/>
<feColorMatrix type="matrix" values="0 0 0 0 0 0 0 0 0 0 0 0 0 0 0 0 0 0 0.2 0"/>
<feBlend mode="normal" in2="shape" result="effect1_innerShadow"/>
</filter>
</defs>
</svg>
