<svg width="129" height="129" viewBox="0 0 129 129" fill="none" xmlns="http://www.w3.org/2000/svg">
<g clip-path="url(#clip0)">
<path d="M72.7449 115.25C73.7723 115.25 74.6052 114.417 74.6052 113.39V108.374C74.6052 107.346 73.7723 106.513 72.7449 106.513C71.7175 106.513 70.8845 107.346 70.8845 108.374V113.39C70.8845 114.417 71.7175 115.25 72.7449 115.25Z" fill="black" fill-opacity="0.26"/>
<path d="M56.2478 115.278C57.2752 115.278 58.1082 114.445 58.1082 113.418V108.409C58.1082 107.382 57.2752 106.549 56.2478 106.549C55.2204 106.549 54.3875 107.382 54.3875 108.409V113.418C54.3875 114.445 55.2204 115.278 56.2478 115.278Z" fill="black" fill-opacity="0.26"/>
<path d="M107.605 84.9888H118.318C119.345 84.9888 120.178 84.1558 120.178 83.1284C120.178 82.101 119.345 81.2681 118.318 81.2681H107.605C106.577 81.2681 105.744 82.101 105.744 83.1284C105.744 84.1558 106.577 84.9888 107.605 84.9888Z" fill="black" fill-opacity="0.26"/>
<path d="M107.605 97.2236H118.318C119.345 97.2236 120.178 96.3907 120.178 95.3633C120.178 94.3359 119.345 93.5029 118.318 93.5029H107.605C106.577 93.5029 105.744 94.3359 105.744 95.3633C105.744 96.3907 106.577 97.2236 107.605 97.2236Z" fill="black" fill-opacity="0.26"/>
<path d="M107.605 109.459H118.318C119.345 109.459 120.178 108.626 120.178 107.599C120.178 106.571 119.345 105.738 118.318 105.738H107.605C106.577 105.738 105.744 106.571 105.744 107.599C105.744 108.626 106.577 109.459 107.605 109.459Z" fill="black" fill-opacity="0.26"/>
<path d="M107.605 72.7534H118.318C119.345 72.7534 120.178 71.9205 120.178 70.8931C120.178 69.8657 119.345 69.0327 118.318 69.0327H107.605C106.577 69.0327 105.744 69.8657 105.744 70.8931C105.744 71.9205 106.577 72.7534 107.605 72.7534Z" fill="black" fill-opacity="0.26"/>
<path d="M21.3954 81.2681H10.682C9.6546 81.2681 8.82166 82.101 8.82166 83.1284C8.82166 84.1558 9.6546 84.9888 10.682 84.9888H21.3954C22.4228 84.9888 23.2558 84.1558 23.2558 83.1284C23.2558 82.101 22.4228 81.2681 21.3954 81.2681Z" fill="black" fill-opacity="0.26"/>
<path d="M21.3954 93.5029H10.682C9.6546 93.5029 8.82166 94.3359 8.82166 95.3633C8.82166 96.3907 9.6546 97.2236 10.682 97.2236H21.3954C22.4228 97.2236 23.2558 96.3907 23.2558 95.3633C23.2558 94.3359 22.4228 93.5029 21.3954 93.5029Z" fill="black" fill-opacity="0.26"/>
<path d="M21.3954 105.738H10.682C9.6546 105.738 8.82166 106.571 8.82166 107.599C8.82166 108.626 9.6546 109.459 10.682 109.459H21.3954C22.4228 109.459 23.2558 108.626 23.2558 107.599C23.2558 106.571 22.4228 105.738 21.3954 105.738Z" fill="black" fill-opacity="0.26"/>
<path d="M21.3954 69.0327H10.682C9.6546 69.0327 8.82166 69.8657 8.82166 70.8931C8.82166 71.9205 9.6546 72.7534 10.682 72.7534H21.3954C22.4228 72.7534 23.2558 71.9205 23.2558 70.8931C23.2558 69.8657 22.4228 69.0327 21.3954 69.0327Z" fill="black" fill-opacity="0.26"/>
<path d="M51.4688 48.6392H42.8579C41.4009 48.6392 40.2155 49.8278 40.2155 51.2888V59.1107C40.2155 60.5717 41.4009 61.7603 42.8579 61.7603H51.4688C52.9298 61.7603 54.1185 60.5717 54.1185 59.1107V51.2888C54.1185 49.8278 52.9298 48.6392 51.4688 48.6392ZM50.3978 58.0396H43.9362V52.3599H50.3978V58.0396Z" fill="black" fill-opacity="0.26"/>
<path d="M60.1947 48.6392C58.7337 48.6392 57.545 49.8278 57.545 51.2888V59.1107C57.545 60.5717 58.7337 61.7603 60.1947 61.7603H68.8056C70.2627 61.7603 71.4481 60.5717 71.4481 59.1107V51.2888C71.4481 49.8278 70.2627 48.6392 68.8056 48.6392H60.1947ZM67.7274 58.0396H61.2657V52.3599H67.7274V58.0396Z" fill="black" fill-opacity="0.26"/>
<path d="M77.5311 61.7603H86.1349C87.5959 61.7603 88.7845 60.5717 88.7845 59.1107V51.2888C88.7845 49.8278 87.5959 48.6392 86.1349 48.6392H77.5311C76.0701 48.6392 74.8815 49.8278 74.8815 51.2888V59.1107C74.8815 60.5717 76.0701 61.7603 77.5311 61.7603ZM78.6022 52.3599H85.0638V58.0396H78.6022V52.3599Z" fill="black" fill-opacity="0.26"/>
<path d="M51.4688 65.689H42.8579C41.4009 65.689 40.2155 66.8776 40.2155 68.3388V76.1605C40.2155 77.6175 41.4009 78.803 42.8579 78.803H51.4688C52.9298 78.803 54.1185 77.6175 54.1185 76.1605V68.3388C54.1185 66.8776 52.9298 65.689 51.4688 65.689ZM50.3978 75.0823H43.9362V69.4097H50.3978V75.0823Z" fill="black" fill-opacity="0.26"/>
<path d="M68.8054 65.689H60.1944C58.7334 65.689 57.5448 66.8776 57.5448 68.3388V76.1605C57.5448 77.6175 58.7334 78.803 60.1944 78.803H68.8054C70.2624 78.803 71.4478 77.6175 71.4478 76.1605V68.3388C71.4481 66.8776 70.2624 65.689 68.8054 65.689ZM67.7274 75.0823H61.2658V69.4097H67.7274V75.0823Z" fill="black" fill-opacity="0.26"/>
<path d="M77.5311 78.803H86.1349C87.5959 78.803 88.7845 77.6175 88.7845 76.1605V68.3388C88.7845 66.8776 87.5959 65.689 86.1349 65.689H77.5311C76.0701 65.689 74.8815 66.8776 74.8815 68.3388V76.1605C74.8815 77.6175 76.0701 78.803 77.5311 78.803ZM78.6022 69.4097H85.0638V75.0823H78.6022V69.4097Z" fill="black" fill-opacity="0.26"/>
<path d="M124.74 45.8763H101.644V40.5768H102.323C104.247 40.5768 105.813 39.0114 105.813 37.0876V28.7204C105.813 26.7963 104.247 25.2312 102.323 25.2312H87.3208V4.52321C87.3208 2.81293 85.926 1.42139 84.2118 1.42139H44.781C43.0707 1.42139 41.6794 2.81293 41.6794 4.52321V25.2312H26.6768C24.749 25.2312 23.1804 26.7966 23.1804 28.7204V37.0876C23.1804 39.0114 24.7488 40.5768 26.6768 40.5768H27.3567V45.8763H4.25958C2.46224 45.8763 1 47.3418 1 49.1431V125.718C1 126.745 1.83294 127.578 2.86035 127.578H126.14C127.167 127.578 128 126.745 128 125.718V49.1431C128 47.3418 126.538 45.8763 124.74 45.8763ZM87.3206 28.9519H102.092V36.8561H87.3206V28.9519ZM26.9008 36.8561V28.9519H41.6792V36.8561H26.9008ZM4.7207 49.597H27.3565V56.7981H4.7207V49.597ZM62.6396 96.1098V123.857H46.8063V95.3867L62.785 95.3872C62.6915 95.6095 62.6396 95.8536 62.6396 96.1098ZM82.1865 123.857H66.3604V96.1098C66.3604 95.8536 66.3085 95.6095 66.2147 95.3875L82.1862 95.388V123.857H82.1865ZM97.9228 123.857H85.9072V95.263C85.9072 93.2796 84.2549 91.666 82.2242 91.666H46.7758C44.7411 91.666 43.0856 93.2796 43.0856 95.263V123.857H31.0772V95.1985C31.0772 94.1711 30.2442 93.3381 29.2168 93.3381C28.1894 93.3381 27.3565 94.1711 27.3565 95.1985V123.857H4.7207V60.5188H27.3565V86.4293C27.3565 87.4567 28.1894 88.2896 29.2168 88.2896C30.2442 88.2896 31.0772 87.4567 31.0772 86.4293V40.5768H61.235C62.2624 40.5768 63.0953 39.7439 63.0953 38.7165C63.0953 37.6891 62.2624 36.8561 61.235 36.8561H45.3999V5.14209H83.5999V36.8561H69.9967C68.9693 36.8561 68.1364 37.6891 68.1364 38.7165C68.1364 39.7439 68.9693 40.5768 69.9967 40.5768H97.9228V123.857ZM124.279 123.857H101.644V60.5188H124.279V123.857ZM124.279 56.7981H101.644V49.597H124.279V56.7981Z" fill="black" fill-opacity="0.26"/>
<path d="M70.4363 28.8786V26.9357H72.3792C74.7067 26.9357 76.6005 25.0421 76.6005 22.7144V19.2772C76.6005 16.9495 74.7069 15.0559 72.3792 15.0559H70.4363V13.1202C70.4363 10.7925 68.5459 8.89893 66.2222 8.89893H62.7778C60.4504 8.89893 58.5566 10.7925 58.5566 13.1202V15.0559H56.6208C54.2934 15.0559 52.3995 16.9495 52.3995 19.2772V22.7144C52.3995 25.0421 54.2931 26.9357 56.6208 26.9357H58.5566V28.8786C58.5566 31.2063 60.4502 33.0999 62.7778 33.0999H66.2222C68.5459 33.0999 70.4363 31.206 70.4363 28.8786ZM62.2775 28.8786V25.0753C62.2775 24.0479 61.4446 23.2149 60.4172 23.2149H56.621C56.3497 23.2149 56.1205 22.9858 56.1205 22.7144V19.2772C56.1205 19.0058 56.3497 18.7766 56.621 18.7766H60.4172C61.4446 18.7766 62.2775 17.9437 62.2775 16.9163V13.1202C62.2775 12.8488 62.5067 12.6196 62.7781 12.6196H66.2225C66.4898 12.6196 66.7158 12.8488 66.7158 13.1202V16.9163C66.7158 17.9437 67.5488 18.7766 68.5762 18.7766H72.3795C72.6508 18.7766 72.88 19.0058 72.88 19.2772V22.7144C72.88 22.9858 72.6508 23.2149 72.3795 23.2149H68.5762C67.5488 23.2149 66.7158 24.0479 66.7158 25.0753V28.8786C66.7158 29.15 66.4898 29.3792 66.2225 29.3792H62.7781C62.5065 29.3792 62.2775 29.1497 62.2775 28.8786Z" fill="black" fill-opacity="0.26"/>
</g>
<rect x="1" y="1" width="127" height="127" stroke="white"/>
<defs>
<clipPath id="clip0">
<rect x="1" y="1" width="127" height="127" fill="white"/>
</clipPath>
</defs>
</svg>
