<svg width="20" height="20" viewBox="0 0 20 20" fill="none" xmlns="http://www.w3.org/2000/svg">
<path d="M13.2573 10.1025L19.9998 14.365V5.65997L13.2573 10.1025Z" fill="#5E6D7C"/>
<path d="M0 5.65997V14.365L6.7425 10.1025L0 5.65997Z" fill="#5E6D7C"/>
<path d="M18.7501 3.125H1.2501C0.626348 3.125 0.131348 3.59 0.0375977 4.18875L10.0001 10.7525L19.9626 4.18875C19.8688 3.59 19.3738 3.125 18.7501 3.125Z" fill="#5E6D7C"/>
<path d="M12.1125 10.8576L10.3438 12.0226C10.2388 12.0913 10.12 12.1251 10 12.1251C9.88004 12.1251 9.76129 12.0913 9.65629 12.0226L7.88754 10.8563L0.0400391 15.8201C0.136289 16.4138 0.628789 16.8751 1.25004 16.8751H18.75C19.3713 16.8751 19.8638 16.4138 19.96 15.8201L12.1125 10.8576Z" fill="#5E6D7C"/>
</svg>
