<?xml version="1.0" encoding="utf-8"?>
<!-- Generator: Adobe Illustrator 23.0.3, SVG Export Plug-In . SVG Version: 6.00 Build 0)  -->
<svg version="1.1" id="Layer_1" xmlns="http://www.w3.org/2000/svg" xmlns:xlink="http://www.w3.org/1999/xlink" x="0px" y="0px"
	 viewBox="0 0 192 84" style="enable-background:new 0 0 192 84;" xml:space="preserve">
<style type="text/css">
	.st0{fill:#34C1B6;}
	.st1{fill:#FFFFFF;}
	.st2{fill:#231F20;}
</style>
<g>
	<path class="st0" d="M33.3,74.64c-0.37-0.16-0.74-0.33-0.97-0.46C18.63,66.83,9.55,55,5.35,39.03c-1.64-6.23-2.43-12.99-2.42-20.65
		l0-0.49c0-3.49,0.04-5.65,0.08-6.97c5.51-0.01,19.7-0.03,30.14-0.03h0.33c10.43,0,24.63,0.02,30.14,0.03
		c0.04,1.32,0.08,3.48,0.08,6.97l0,0.49c0.01,7.66-0.79,14.42-2.42,20.65C57.06,55,47.98,66.83,34.27,74.18
		C34.04,74.31,33.67,74.48,33.3,74.64z"/>
</g>
<g>
	<path class="st0" d="M33.3,77.81l-0.14-0.06c-0.06-0.02-1.46-0.6-2.21-1C16.5,69.01,6.94,56.56,2.52,39.77
		C0.82,33.29-0.01,26.29,0,18.37l0-0.49c0.01-9.55,0.22-9.67,0.52-9.84L0.6,8L0.7,8c0.74,0,19.5-0.03,32.44-0.03h0.33
		C46.41,7.97,65.17,8,65.91,8L66,8l0.08,0.04c0.3,0.16,0.51,0.28,0.52,9.83l0,0.49c0.01,7.92-0.82,14.92-2.52,21.4
		C59.67,56.56,50.1,69.01,35.65,76.76c-0.75,0.4-2.15,0.97-2.21,1L33.3,77.81z M0.95,8.73c-0.14,0.81-0.22,3.88-0.22,9.15l0,0.49
		c-0.01,7.85,0.81,14.79,2.5,21.21C7.59,56.17,17.03,68.46,31.3,76.11c0.58,0.31,1.63,0.75,2,0.91c0.38-0.16,1.42-0.6,2-0.91
		c14.26-7.65,23.71-19.94,28.07-36.53c1.69-6.42,2.5-13.36,2.5-21.21l0-0.49c0-5.27-0.08-8.34-0.22-9.15
		C63.25,8.73,45.74,8.7,33.47,8.7h-0.33C20.86,8.7,3.35,8.73,0.95,8.73z"/>
</g>
<g>
	<g>
		<g>
			<rect x="30.78" y="30.89" class="st1" width="5.05" height="14.4"/>
		</g>
		<g>
			
				<rect x="30.78" y="30.89" transform="matrix(6.123234e-17 -1 1 6.123234e-17 -4.7919 71.3941)" class="st1" width="5.05" height="14.4"/>
		</g>
	</g>
	<g>
		<path class="st1" d="M33.3,49.34c-6.33,0-11.48-5.15-11.48-11.48s5.15-11.48,11.48-11.48c6.33,0,11.48,5.15,11.48,11.48
			S39.63,49.34,33.3,49.34z M33.3,27.12c-5.93,0-10.75,4.82-10.75,10.75s4.82,10.75,10.75,10.75c5.93,0,10.75-4.82,10.75-10.75
			S39.23,27.12,33.3,27.12z"/>
	</g>
	<g>
		<path class="st1" d="M33.3,51.43c-15.94,0-25.64-13.8-25.73-13.94c-0.09-0.13-0.09-0.31,0.01-0.43
			c0.1-0.13,10.56-13.09,25.72-13.09c15.15,0,25.61,12.96,25.72,13.09c0.1,0.13,0.11,0.3,0.01,0.43
			C58.94,37.63,49.24,51.43,33.3,51.43z M8.33,37.3c1.31,1.77,10.53,13.4,24.97,13.4c14.45,0,23.66-11.64,24.97-13.4
			c-1.42-1.67-11.23-12.6-24.97-12.6C19.56,24.7,9.75,35.63,8.33,37.3z"/>
	</g>
	<g>
		<path class="st1" d="M7.87,37.71c-0.07,0-0.14-0.02-0.2-0.06c-0.17-0.11-0.21-0.34-0.1-0.51C7.67,36.99,18.13,21.7,33.3,21.7
			c15.17,0,25.63,15.29,25.74,15.44c0.11,0.17,0.07,0.39-0.1,0.51c-0.17,0.11-0.39,0.07-0.51-0.1c-0.1-0.15-10.35-15.12-25.13-15.12
			c-14.79,0-25.03,14.97-25.13,15.12C8.1,37.66,7.99,37.71,7.87,37.71z"/>
	</g>
</g>
<g>
	<path class="st0" d="M75.22,21.38l3.65,10.3l3.63-10.3h3.84v14.2H83.4v-3.88L83.7,25l-3.83,10.58h-2.01l-3.82-10.57l0.29,6.69v3.88
		H71.4v-14.2H75.22z"/>
	<path class="st0" d="M88.27,30.2c0-1.05,0.2-1.98,0.6-2.8c0.4-0.82,0.98-1.45,1.74-1.9c0.76-0.45,1.64-0.67,2.64-0.67
		c1.42,0,2.59,0.44,3.49,1.31c0.9,0.87,1.4,2.05,1.51,3.55l0.02,0.72c0,1.62-0.45,2.92-1.36,3.9c-0.9,0.98-2.12,1.47-3.64,1.47
		c-1.52,0-2.73-0.49-3.64-1.46c-0.91-0.97-1.36-2.3-1.36-3.98V30.2z M91.09,30.4c0,1,0.19,1.77,0.57,2.3
		c0.38,0.53,0.92,0.8,1.62,0.8c0.68,0,1.22-0.26,1.6-0.79c0.38-0.52,0.58-1.36,0.58-2.51c0-0.98-0.19-1.74-0.58-2.28
		c-0.38-0.54-0.92-0.81-1.62-0.81c-0.69,0-1.22,0.27-1.6,0.81C91.28,28.45,91.09,29.28,91.09,30.4z"/>
	<path class="st0" d="M108.79,25.03v10.55h-2.81v-3.65h-1.78l-2.03,3.65h-2.86l2.3-4.12c-0.63-0.29-1.12-0.69-1.46-1.19
		c-0.34-0.5-0.51-1.07-0.51-1.71c0-1.02,0.4-1.86,1.18-2.51c0.79-0.65,1.85-0.99,3.17-1.02H108.79z M104.05,29.96h1.93V27.3h-1.83
		c-0.5,0-0.91,0.13-1.22,0.39c-0.31,0.26-0.47,0.58-0.47,0.96s0.15,0.69,0.45,0.93C103.21,29.83,103.59,29.95,104.05,29.96z"/>
	<path class="st2" d="M125.31,35.58h-2.83V27.3h-3.53v8.28h-2.82V25.03h9.17V35.58z"/>
	<path class="st2" d="M136.96,30.4c0,1.63-0.37,2.93-1.11,3.91c-0.74,0.98-1.73,1.47-2.99,1.47c-1.07,0-1.93-0.37-2.58-1.11v4.97
		h-2.82V25.03h2.61l0.1,1.03c0.68-0.82,1.57-1.23,2.67-1.23c1.3,0,2.31,0.48,3.03,1.44c0.72,0.96,1.08,2.29,1.08,3.98V30.4z
		 M134.14,30.19c0-0.98-0.17-1.74-0.52-2.27c-0.35-0.53-0.85-0.8-1.52-0.8c-0.88,0-1.49,0.34-1.82,1.01v4.32
		c0.34,0.7,0.96,1.04,1.84,1.04C133.47,33.5,134.14,32.4,134.14,30.19z"/>
	<path class="st2" d="M138.27,30.2c0-1.05,0.2-1.98,0.6-2.8c0.4-0.82,0.98-1.45,1.74-1.9c0.76-0.45,1.64-0.67,2.64-0.67
		c1.42,0,2.59,0.44,3.49,1.31c0.9,0.87,1.4,2.05,1.51,3.55l0.02,0.72c0,1.62-0.45,2.92-1.36,3.9c-0.9,0.98-2.12,1.47-3.64,1.47
		c-1.52,0-2.73-0.49-3.64-1.46c-0.91-0.97-1.36-2.3-1.36-3.98V30.2z M141.09,30.4c0,1,0.19,1.77,0.57,2.3
		c0.38,0.53,0.92,0.8,1.62,0.8c0.68,0,1.22-0.26,1.6-0.79c0.38-0.52,0.58-1.36,0.58-2.51c0-0.98-0.19-1.74-0.58-2.28
		c-0.38-0.54-0.92-0.81-1.62-0.81c-0.69,0-1.22,0.27-1.6,0.81C141.27,28.45,141.09,29.28,141.09,30.4z"/>
	<path class="st2" d="M155.54,28.14c0-0.37-0.12-0.66-0.37-0.86c-0.24-0.2-0.59-0.31-1.04-0.31c-0.46,0-0.84,0.1-1.13,0.29
		c-0.29,0.19-0.43,0.46-0.43,0.81h-2.82c0-0.96,0.4-1.73,1.19-2.33c0.79-0.6,1.81-0.9,3.04-0.9c1.36,0,2.43,0.27,3.2,0.8
		c0.78,0.53,1.17,1.29,1.17,2.27c0,0.47-0.14,0.9-0.42,1.29c-0.28,0.39-0.68,0.71-1.19,0.94c1.2,0.42,1.8,1.24,1.8,2.45
		c0,0.97-0.41,1.74-1.24,2.32c-0.83,0.58-1.93,0.86-3.31,0.86c-1.28,0-2.33-0.3-3.16-0.9s-1.24-1.4-1.24-2.42h2.82
		c0,0.36,0.16,0.65,0.48,0.87c0.32,0.22,0.73,0.33,1.25,0.33c0.5,0,0.89-0.12,1.17-0.35c0.28-0.23,0.42-0.54,0.42-0.92
		c0-0.46-0.13-0.79-0.4-0.99c-0.27-0.2-0.67-0.3-1.2-0.3h-1.53v-1.83h1.63C155.1,29.24,155.54,28.86,155.54,28.14z"/>
	<path class="st2" d="M159.82,30.2c0-1.05,0.2-1.98,0.6-2.8c0.4-0.82,0.98-1.45,1.74-1.9c0.76-0.45,1.64-0.67,2.64-0.67
		c1.42,0,2.59,0.44,3.49,1.31c0.9,0.87,1.4,2.05,1.51,3.55l0.02,0.72c0,1.62-0.45,2.92-1.36,3.9c-0.9,0.98-2.12,1.47-3.64,1.47
		c-1.52,0-2.73-0.49-3.64-1.46c-0.91-0.97-1.36-2.3-1.36-3.98V30.2z M162.63,30.4c0,1,0.19,1.77,0.57,2.3
		c0.38,0.53,0.92,0.8,1.62,0.8c0.68,0,1.22-0.26,1.6-0.79c0.38-0.52,0.58-1.36,0.58-2.51c0-0.98-0.19-1.74-0.58-2.28
		c-0.38-0.54-0.92-0.81-1.62-0.81c-0.69,0-1.22,0.27-1.6,0.81C162.82,28.45,162.63,29.28,162.63,30.4z"/>
	<path class="st2" d="M181.04,30.4c0,1.63-0.37,2.93-1.11,3.91c-0.74,0.98-1.73,1.47-2.99,1.47c-1.07,0-1.93-0.37-2.58-1.11v4.97
		h-2.82V25.03h2.61l0.1,1.03c0.68-0.82,1.57-1.23,2.67-1.23c1.3,0,2.31,0.48,3.03,1.44c0.72,0.96,1.08,2.29,1.08,3.98V30.4z
		 M178.23,30.19c0-0.98-0.17-1.74-0.52-2.27c-0.35-0.53-0.85-0.8-1.52-0.8c-0.88,0-1.49,0.34-1.82,1.01v4.32
		c0.34,0.7,0.96,1.04,1.84,1.04C177.55,33.5,178.23,32.4,178.23,30.19z"/>
	<path class="st2" d="M188.9,35.58c-0.13-0.25-0.22-0.57-0.28-0.95c-0.68,0.76-1.57,1.14-2.66,1.14c-1.03,0-1.89-0.3-2.57-0.9
		c-0.68-0.6-1.02-1.35-1.02-2.26c0-1.12,0.41-1.98,1.24-2.57c0.83-0.6,2.03-0.9,3.59-0.91h1.3v-0.6c0-0.49-0.13-0.88-0.38-1.17
		c-0.25-0.29-0.65-0.44-1.18-0.44c-0.47,0-0.85,0.11-1.12,0.34c-0.27,0.23-0.4,0.54-0.4,0.94h-2.82c0-0.61,0.19-1.18,0.57-1.7
		c0.38-0.52,0.91-0.93,1.6-1.22c0.69-0.3,1.46-0.44,2.32-0.44c1.3,0,2.33,0.33,3.1,0.98c0.76,0.65,1.15,1.57,1.15,2.75v4.57
		c0.01,1,0.15,1.76,0.42,2.27v0.17H188.9z M186.57,33.62c0.42,0,0.8-0.09,1.15-0.28c0.35-0.19,0.61-0.43,0.78-0.75v-1.81h-1.05
		c-1.41,0-2.16,0.49-2.25,1.46l-0.01,0.17c0,0.35,0.12,0.64,0.37,0.87C185.8,33.5,186.14,33.62,186.57,33.62z"/>
	<path class="st0" d="M80.39,48.99v10.55h-2.82v-8.28h-2.49l-0.18,3.26c-0.11,1.74-0.45,3-1.02,3.8c-0.57,0.79-1.42,1.2-2.55,1.22
		h-0.96l-0.03-2.29l0.35-0.03c0.51-0.04,0.88-0.34,1.11-0.9c0.23-0.56,0.38-1.51,0.44-2.86l0.2-4.48H80.39z"/>
	<path class="st0" d="M82.55,46.26c0-0.42,0.14-0.77,0.42-1.04c0.28-0.27,0.67-0.41,1.16-0.41c0.48,0,0.86,0.14,1.15,0.41
		c0.29,0.27,0.43,0.62,0.43,1.04c0,0.43-0.14,0.78-0.43,1.05c-0.29,0.27-0.67,0.41-1.15,0.41s-0.86-0.14-1.15-0.41
		C82.69,47.04,82.55,46.69,82.55,46.26z M85.54,59.54h-2.83V48.99h2.83V59.54z"/>
	<path class="st0" d="M91.99,55.65h-1.13v3.89h-2.82V48.99h2.82v3.97h1l2.3-3.97h3.56l-3.45,5.02l3.77,5.53h-3.75L91.99,55.65z"/>
	<path class="st0" d="M105.22,59.54c-0.13-0.25-0.22-0.57-0.28-0.95c-0.68,0.76-1.57,1.14-2.66,1.14c-1.03,0-1.89-0.3-2.57-0.9
		c-0.68-0.6-1.02-1.35-1.02-2.26c0-1.12,0.41-1.98,1.24-2.57c0.83-0.6,2.03-0.9,3.59-0.91h1.3v-0.6c0-0.49-0.13-0.88-0.38-1.17
		c-0.25-0.29-0.65-0.44-1.18-0.44c-0.47,0-0.85,0.11-1.12,0.34c-0.27,0.23-0.4,0.54-0.4,0.94h-2.82c0-0.61,0.19-1.18,0.57-1.7
		c0.38-0.52,0.91-0.93,1.6-1.22c0.69-0.3,1.46-0.44,2.32-0.44c1.3,0,2.33,0.33,3.1,0.98c0.76,0.65,1.15,1.57,1.15,2.75v4.57
		c0.01,1,0.15,1.76,0.42,2.27v0.17H105.22z M102.89,57.58c0.42,0,0.8-0.09,1.15-0.28c0.35-0.19,0.61-0.43,0.78-0.75v-1.81h-1.05
		c-1.41,0-2.16,0.49-2.25,1.46l-0.01,0.17c0,0.35,0.12,0.64,0.37,0.87C102.13,57.46,102.47,57.58,102.89,57.58z"/>
	<path class="st0" d="M119.31,54.36c0,1.63-0.37,2.93-1.11,3.91c-0.74,0.98-1.73,1.47-2.99,1.47c-1.07,0-1.93-0.37-2.58-1.11v4.97
		h-2.82V48.99h2.61l0.1,1.03c0.68-0.82,1.57-1.23,2.67-1.23c1.3,0,2.31,0.48,3.03,1.44c0.72,0.96,1.08,2.29,1.08,3.98V54.36z
		 M116.5,54.16c0-0.98-0.17-1.74-0.52-2.27c-0.35-0.53-0.85-0.8-1.52-0.8c-0.88,0-1.49,0.34-1.82,1.01v4.32
		c0.34,0.7,0.96,1.04,1.84,1.04C115.82,57.46,116.5,56.36,116.5,54.16z"/>
	<path class="st0" d="M130.2,59.54h-2.83v-4.05h-3.5v4.05h-2.82V48.99h2.82v4.23h3.5v-4.23h2.83V59.54z"/>
	<path class="st0" d="M141.18,48.99v10.55h-2.81v-3.65h-1.78l-2.03,3.65h-2.86l2.3-4.12c-0.63-0.29-1.12-0.69-1.46-1.19
		c-0.34-0.5-0.51-1.07-0.51-1.71c0-1.02,0.4-1.86,1.18-2.51s1.85-0.99,3.17-1.02H141.18z M136.45,53.92h1.93v-2.66h-1.83
		c-0.5,0-0.91,0.13-1.22,0.39c-0.31,0.26-0.47,0.58-0.47,0.96s0.15,0.69,0.45,0.93S135.98,53.92,136.45,53.92z"/>
</g>
</svg>
