<svg width="28" height="25" viewBox="0 0 28 25" fill="none" xmlns="http://www.w3.org/2000/svg">
<path d="M27.1289 2.95962C26.1242 3.46154 25.0537 3.79423 23.9377 3.95577C25.0858 3.175 25.9621 1.94808 26.3741 0.469231C25.3036 1.19615 24.1217 1.70962 22.8621 1.99615C21.8456 0.763462 20.3969 0 18.8165 0C15.7502 0 13.2817 2.83462 13.2817 6.30962C13.2817 6.80962 13.3188 7.29038 13.41 7.74808C8.80555 7.49231 4.73126 4.97885 1.99424 1.15C1.5164 2.09423 1.23612 3.175 1.23612 4.33846C1.23612 6.52308 2.22387 8.45961 3.69622 9.58077C2.8064 9.56154 1.93346 9.26731 1.1939 8.80385C1.1939 8.82308 1.1939 8.84808 1.1939 8.87308C1.1939 11.9385 3.1137 14.4846 5.63122 15.0712C5.18039 15.2115 4.68905 15.2788 4.17913 15.2788C3.82455 15.2788 3.46659 15.2558 3.13059 15.1712C3.84819 17.6692 5.88449 19.5058 8.30576 19.5654C6.42142 21.2442 4.02885 22.2558 1.43873 22.2558C0.984534 22.2558 0.548908 22.2327 0.113281 22.1692C2.56663 23.9712 5.47419 25 8.60968 25C18.8013 25 24.3733 15.3846 24.3733 7.05C24.3733 6.77115 24.3648 6.50192 24.353 6.23462C25.4522 5.34615 26.3758 4.23654 27.1289 2.95962Z" fill="#1DA1F3"/>
</svg>
