<svg width="20" height="20" viewBox="0 0 20 20" fill="none" xmlns="http://www.w3.org/2000/svg">
<path d="M19.0103 10.582L19.1978 10.2759L19.0103 9.96964C18.9788 9.91852 18.2244 8.70087 16.7588 7.48062C14.8095 5.85785 12.5131 5 10.1176 5C7.72272 5 5.42062 5.85739 3.46017 7.4794C1.98618 8.69904 1.22324 9.91577 1.1915 9.96704L1 10.2759L1.1915 10.5847C1.22324 10.636 1.98618 11.8527 3.46017 13.0724C5.42062 14.6944 7.72272 15.5518 10.1176 15.5518C12.5131 15.5518 14.8095 14.6939 16.7588 13.0711C18.2244 11.8509 18.9788 10.6332 19.0103 10.582ZM15.9779 12.1962C14.2243 13.6452 12.2526 14.3797 10.1176 14.3797C7.98181 14.3797 6.00366 13.6447 4.23822 12.1948C3.32513 11.445 2.70609 10.6857 2.40289 10.2759C2.70624 9.86572 3.32529 9.1066 4.23822 8.35678C6.00366 6.90704 7.98166 6.17188 10.1176 6.17188C12.2526 6.17188 14.2242 6.90659 15.9779 8.35541C16.8868 9.10645 17.5005 9.86679 17.7996 10.2759C17.5002 10.6851 16.8867 11.4455 15.9779 12.1962Z" fill="#273247"/>
<path d="M6.59961 6.27588L1.59961 10.2759L2.59961 11.2759L5.09961 13.7759L10.5996 14.7759L14.5996 13.7759L18.5996 10.2759L16.0996 7.77588L11.0996 5.77588L6.59961 6.27588Z" fill="#273247"/>
<circle cx="10.0996" cy="10.2759" r="3" fill="white"/>
<circle cx="10.0996" cy="10.2759" r="1" fill="#273247"/>
</svg>
